<mxfile host="app.diagrams.net" modified="2023-11-01T14:52:12.441Z" agent="Mozilla/5.0 (Windows NT 10.0; Win64; x64) AppleWebKit/537.36 (KHTML, like Gecko) Chrome/118.0.0.0 Safari/537.36" etag="ZfZSKRVIK7yFrCmXP8ic" version="22.0.8" type="device">
  <diagram name="Página-1" id="06oCui2A3oZa7s_VB7yG">
    <mxGraphModel dx="867" dy="475" grid="1" gridSize="10" guides="1" tooltips="1" connect="1" arrows="1" fold="1" page="1" pageScale="1" pageWidth="827" pageHeight="1169" math="0" shadow="0">
      <root>
        <mxCell id="0" />
        <mxCell id="1" parent="0" />
        <mxCell id="iklTfoxNoCNBzsFMIZ0Q-1" value="&amp;lt;&amp;lt;Root&amp;gt;&amp;gt;&lt;br&gt;&amp;lt;&amp;lt;Entity&amp;gt;&amp;gt;&lt;br&gt;Dispositivo" style="rounded=0;whiteSpace=wrap;html=1;" vertex="1" parent="1">
          <mxGeometry x="730" y="495" width="120" height="60" as="geometry" />
        </mxCell>
        <mxCell id="iklTfoxNoCNBzsFMIZ0Q-2" value="" style="endArrow=diamondThin;endFill=1;endSize=24;html=1;rounded=0;exitX=1;exitY=0.25;exitDx=0;exitDy=0;entryX=0;entryY=0.5;entryDx=0;entryDy=0;" edge="1" parent="1" source="iklTfoxNoCNBzsFMIZ0Q-1" target="iklTfoxNoCNBzsFMIZ0Q-5">
          <mxGeometry width="160" relative="1" as="geometry">
            <mxPoint x="1060" y="300" as="sourcePoint" />
            <mxPoint x="1080" y="350" as="targetPoint" />
          </mxGeometry>
        </mxCell>
        <mxCell id="iklTfoxNoCNBzsFMIZ0Q-3" value="" style="endArrow=diamondThin;endFill=1;endSize=24;html=1;rounded=0;exitX=0.5;exitY=0;exitDx=0;exitDy=0;entryX=0.5;entryY=1;entryDx=0;entryDy=0;" edge="1" parent="1" source="iklTfoxNoCNBzsFMIZ0Q-1" target="iklTfoxNoCNBzsFMIZ0Q-7">
          <mxGeometry width="160" relative="1" as="geometry">
            <mxPoint x="1050" y="450" as="sourcePoint" />
            <mxPoint x="820" y="360" as="targetPoint" />
          </mxGeometry>
        </mxCell>
        <mxCell id="iklTfoxNoCNBzsFMIZ0Q-5" value="&amp;lt;&amp;lt;Value Object&amp;gt;&amp;gt;&lt;br style=&quot;border-color: var(--border-color);&quot;&gt;Número de série" style="rounded=0;whiteSpace=wrap;html=1;" vertex="1" parent="1">
          <mxGeometry x="970" y="400" width="120" height="60" as="geometry" />
        </mxCell>
        <mxCell id="iklTfoxNoCNBzsFMIZ0Q-6" value="&amp;lt;&amp;lt;Value Object&amp;gt;&amp;gt;&lt;br style=&quot;border-color: var(--border-color);&quot;&gt;Nickname" style="rounded=0;whiteSpace=wrap;html=1;" vertex="1" parent="1">
          <mxGeometry x="830" y="370" width="120" height="60" as="geometry" />
        </mxCell>
        <mxCell id="iklTfoxNoCNBzsFMIZ0Q-7" value="&amp;lt;&amp;lt;Value Object&amp;gt;&amp;gt;&lt;br style=&quot;border-color: var(--border-color);&quot;&gt;Código do Dispositivo" style="rounded=0;whiteSpace=wrap;html=1;" vertex="1" parent="1">
          <mxGeometry x="697.47" y="350" width="120" height="60" as="geometry" />
        </mxCell>
        <mxCell id="iklTfoxNoCNBzsFMIZ0Q-8" value="" style="endArrow=diamondThin;endFill=1;endSize=24;html=1;rounded=0;exitX=0.75;exitY=0;exitDx=0;exitDy=0;entryX=0.5;entryY=1;entryDx=0;entryDy=0;" edge="1" parent="1" source="iklTfoxNoCNBzsFMIZ0Q-1" target="iklTfoxNoCNBzsFMIZ0Q-6">
          <mxGeometry width="160" relative="1" as="geometry">
            <mxPoint x="800" y="485" as="sourcePoint" />
            <mxPoint x="780" y="435" as="targetPoint" />
          </mxGeometry>
        </mxCell>
        <mxCell id="iklTfoxNoCNBzsFMIZ0Q-9" value="&amp;lt;&amp;lt;Value Object&amp;gt;&amp;gt;&lt;br&gt;Estado do Dispositivo" style="rounded=0;whiteSpace=wrap;html=1;" vertex="1" parent="1">
          <mxGeometry x="970" y="480" width="120" height="60" as="geometry" />
        </mxCell>
        <mxCell id="iklTfoxNoCNBzsFMIZ0Q-10" value="" style="endArrow=diamondThin;endFill=1;endSize=24;html=1;rounded=0;exitX=1;exitY=0.5;exitDx=0;exitDy=0;entryX=0;entryY=0.5;entryDx=0;entryDy=0;" edge="1" parent="1" source="iklTfoxNoCNBzsFMIZ0Q-1" target="iklTfoxNoCNBzsFMIZ0Q-9">
          <mxGeometry width="160" relative="1" as="geometry">
            <mxPoint x="830" y="485" as="sourcePoint" />
            <mxPoint x="920" y="435" as="targetPoint" />
          </mxGeometry>
        </mxCell>
        <mxCell id="iklTfoxNoCNBzsFMIZ0Q-11" value="&amp;lt;&amp;lt;Value Object&amp;gt;&amp;gt;&lt;br&gt;Descrição do Dispositivo" style="rounded=0;whiteSpace=wrap;html=1;" vertex="1" parent="1">
          <mxGeometry x="940" y="553.62" width="120" height="60" as="geometry" />
        </mxCell>
        <mxCell id="iklTfoxNoCNBzsFMIZ0Q-12" value="" style="endArrow=diamondThin;endFill=1;endSize=24;html=1;rounded=0;exitX=1;exitY=0.75;exitDx=0;exitDy=0;entryX=0;entryY=0.5;entryDx=0;entryDy=0;" edge="1" parent="1" source="iklTfoxNoCNBzsFMIZ0Q-1" target="iklTfoxNoCNBzsFMIZ0Q-11">
          <mxGeometry width="160" relative="1" as="geometry">
            <mxPoint x="860" y="535" as="sourcePoint" />
            <mxPoint x="980" y="520" as="targetPoint" />
          </mxGeometry>
        </mxCell>
        <mxCell id="iklTfoxNoCNBzsFMIZ0Q-13" value="" style="shape=stencil(nZ3ZsiQ3jkS/Rq9p3JfnWf5DZl3dknWPSlZSz/L3Q44sb2S5Rx7qzpsW4CYjggQBB+D4If/Lbz/9+OuXH1L47fdvX//+5b9+/svvP/2Q//WHlH7+5acv337+ff3TD/nffsj/8tev37787dvXf/7ylz/+/dcft+T+p//4+p/7L/z3H3opPmbaWin8zx//JTzK/L//8O9/yP/j51++l29T5CvL5yDyPaB8GCpfQD48hq6/N5Sv+XPyydZf38vH+RjtE+tf8kXfZ88oH+15E8iP58+/yEeUzyYP3yv2x4wi3wbKl67yHeWDPm+D7xXbo9bPydt+a/R963O7/2n58Cn58sm/Xz759/Oj6X7G95Mf8VPfNz3ap/ZbekT9XnhebuxPp/XER9L1DPr768/p35+0/vDIak8m2EMzD8veweufjzxFPMJpH4+ZVRxezlDb8/Gy3oiHouLwqP3Roohn2Jn9udRLvMCLb4/eVRzsSHtkFa/wqMsqBBFvYAWrbvqIRq0+39slTndKeUzdM7SFy/NAX+IT/7pssfQIKB6ziEfYwFndi4R7Jj8vs0u8wGKyr33Anslq6/MjwWlK6lpk/Krp+X8v8Umeizoi5elpvBHPQ8TRT3s+2SU+8K+H7/dMfX7me6v3mEHECxnhp0tziQ+6ox71+0dtj0Qm+FGaiFfyKNTBafiZor7I/jT4b8TluuzP++qNePhefNlYWHtQZ2s8n/2N+MgiPlC8f38Vz0fCxch+n+iJBnU81tUZ4dWEp4F+kSdPZcnLdbO+BS5fts2SJ093ycvdus4Y7ITwvL5e5DuuRw74cr0ybMwl31SePBVzVLaric+bZf0VfY8VKA2VJ08uPDfXh3w7PK/L07225OX99EfF/aPy4+ma/mn5zz3vxKvwTp5MuL3//QU/870uc/En5SNawqCB/3ZbPrM/95WH65f9f7j87Txu74HPb1f5gedX7NXlWb2zh1HleT93eZ/1cH4lkNlOLf79MVSekJ2gXun24Akp0OhhX40oLzfpur3478ep8vz35Xyt+4vez0f08iJf2S1JKj/RSSrinAb0faMCHUueHRnZb3n9IssPlZ/oV/Xv90NeHi6c3/j0AT/kM9rb+Hy6F/kBf/8jjPmQP3nMUdz3enLIg8pPlC+ynvb8Iu/ig+/3c+7PX3wjL/ZhyZM98ehmYEicFFvIfF5WsGXy9PezAptLnpCUrMBsCbifs97XS56ikKz+T1kWg+WbyhMSlx9F1s+Bd34+3Ys82Z+s91fJT1DjnfxUeTov+Xm6X+T5e4m9KgXtgwGVpSJUlp9v+0We7H9WILG0R8T9I0D6km8sLwF7f0K1b+TlPC55fj+jq/xEeYkdy3h6dO/kq8o38JeKnvcyEU0sz7f9Ik/+Z3mCAB8gQsD4rqi/WgOel6Lnt354RG/k5TzW+LQwb+QF76kRkfTyfNsf8ukJX72RV5CF7UN5gogv8uQ/FN0Plf3napBSxvio6v1bC8ab1b5vQRCqqr1d8mT/q+IJteJ+rupf1Yr+c33mRV7k6fzWZ3TzId/wPqp63ivjYgZ5L3nyZyxxVjvu/2bntyOM3TQerAPv96ZY8JKnzFBTf6xOjC+a7Yd5WE/tKk/4T9Pz3gJisE3vryVP+78purfkKV5ueh81xtOa3kdLnu6vppmBJU/xddN4syX0z7tCq43jka72asnTerr6qy0jTN3Vvi15Oo9dz0vLaB+6+ret4P3e1b9tBe/3rvhkq883/EZezlf7sMBv5OV8LXnyB7plCRran65psSVPeHXXeLb1w/fV/d8Pf3/K+R24/qGJtyVPeOBQfKNNzL8O9WeWPO3/ofddD0/E4438CCpP8enQ99MjJjum5o+X/IT9MzUj3BPuz6n2fMmT/zB1//SM6ZSp8XXPnDoKlmoqGCAthTRVAREmS5EsBYJcdoZGnoExlKWgm6I+w8R3CnILLIVBbynqsekNk75LQexib7ykqIF2b3hwdgnL9yetd8yExaiu31Kg0HwpzKEKnRSsCqeP5+56pyDe2VIolBdNat6XAhXeRcOz+sT4ZylMUyCDtEubsirgkrJegSNgiLKLrbIqYKI8PzfziwJdgrE8qy8+FCKfuKLX8uBKmKUguMdSwBNXFegfCQOnpSB7aSlgBr/aa02nJYnVGOyr7VRkVAVKHi4FQcsHZ2N3XeP3VmMUvP534eRQhUabrytgPioCgHFoxmIpZPoOVm62FA7Fq3KhjIYxVwpWH9HQCdhZuKEKFOV42mh0LGjaeYukCoSzbOC/qQIFvsns0hi8pGx1HgNTgxuLKqpAZsbBljF5SU3RwDE5+9LUExgMB7r/PwMvaaj1Xgr4lqZujcnGeLtwUhETMYTPQTHipYD1blFB8aVAoFpOinrN9DTP9wpZw86ZMO2Uix7RpUCmcikMU6BAJpu5n5kzJU1N5fxI5twrWCw82dxnC8ZmRrBpKcgNNA/ZkqnnYRa8skpQr3IpUDxTrG5uFgQsS3rijS8K5C8VSwEuBYIwihmyWbEerhhIPhmkLVXvuKVAZcY7KTRUgbZGaXrtTr4US7c6Ok4kl6FI52wY+JUPYPNFIdF3mGaXGtay1KBe5WSwuUZtW5iMxlSrIZ0cZdWk+Zz50Upyr5DNkHUEPJdCs18gM1OLBuBLgSDkpSAhzeQatlo1iTs7Fk3Wpm7o7Himl0JLqoBplK4RylIgXKYaUDcH+q112C8MjBSXgv8Cfump4fFSwFzQvPkFukVbUHR4K1A2xcrB5iE9Yo0wk53EpSAFZFuBEgxJK6SWAlVALAVJUS0FahZq2a6swTkVS0pPdnQ3Bm5vCbNgVWHWrUBLsrzcnOiRNetoWwqEzTTLHGwFWlJX1GEpUGqxDa1NWgqUC25T44fJ2MxS0Ft0InLSw82SCLbr0byZie5Pt6aHpYAJkw8/+FWBMhTue0/sOFkKw56Bagp6URTupGBZ+bOCunAHhabw6Umhm+99VOif+wV3sI4KGvgdvvS8+w7UemdAyFYAIzCCeQK8vZfCtNdKvsawRprJBbEjKpK4zzRlgJKWCM2JbujGDe08UE/BUphu+eihszm6E6tWhzXAzYGB3ygWofAdN6wwZ9/TYFtHtfB4YGg52o1nTI1ES0FqnbbfSrnKbvd0xztuWLZ4xw9gjJeCHtHG6dCh/QI7LKNm2qHA4FIggHZMbS3bwSu91qkp1xVPU4naDFrTszEBykFaE9LknOJ0BCujXZrR4umMGNm0bsCZ0KvcAJdBXpSlWf9bT1zE4HXjVVkVAj2DX+wBj+gFP70oULHFUpC+8sHV1rNo+cpgr3IpZMOMyVmfRW+gwSHNUhBwcykQzrfhJ8mhcF70gp9esgOUpdkKUxUoBtp4leUfqAV/moO1cyj0lqr6raNinc9SyPLQDNtdiNiLAt1x00olR2YzY7WS6yImGPuC0D4UuBllmht6yItu4y7bO3A5SNN6se3U0Xdomk44ZMD3BSUJ7Y430LQSyKVAMMU0oHzXOrCCJI62v89LEuu9K0LIVDYrKyp8oVjdZC9sjJuVX2R0Q28UON18q0CJ1JtniFxbdKeQDksSBeYNulVAI9C0/6IdbqCmuHf7SJK8UxDIaymQCze95JVL8qYlIRv3bGwFKypEy9c0ytpVjqTgZawHc9/1BmqFH7oruLkU8Mq6q0yl8Hh6aWo+/YJYvpZOzyAlJI15RraCVSvjme6aSN3lzWSXunqVu36adqsXzDI12bSKkHa4srq2bC0FNJX9poadYIqdbUiqgEWPBvbXgSnCnZ4IqlD5Gbr9AvV57dhWfoFTIrNbJ01nc29462614PMgVqNyb/bsWgBYG5YY7oyJfLiKSfk5tL22VkR0t8JUBQxphqI/lfPTW2GqAp648XRFPhQym5mhCbylgMZ4aEqkJsw/TEMdauI7bih8Wg+uw1AjsBRwtw514So3zs5hnWsBUbitIK2SE+uMNyJmvYaUXrsgtA8Fbg7aaSLvliQjMG7aMQmQmkNj0cL9BdNA5tKQsGbnlZIqYAw0NRm8W2jpxBkZ5VKgGqxpRfqlYJPunJq1LIWtxlTXoWS+FKce0cI8PdM4+ZYCIidTPYHC1HYXLP6hwCScW0G4C5hrYhrraGbce1rCYrMFkBGYRk/BVY9zqplZCnhPT/U1MteGTkvK58MdN41S4bi9xS5l7nHfCkaCgfH0VEO2C/bIzFgpT058i7rCoY/mTgF9PlcIjJyYwqbRPDyDcbscLJ84iengVU7NZSVOiWyFqApo7m23HnjtpmUHdgvw4YgWVcB72szMbjrnX5CgKR1Cy6lY5aZp4AMkLtzmHeG3JNHuJlrhhxacbzPLHC52UeAOi+06VFXAZxjGkhkYIzMXLjF3wrRWgDj5Sw9jQ+Nuw6tE60NhHGOgoAq4NbqeuMg1WFeO8kPhgLd243HtnBKxHuPYT9Cj5BTjwWoYQBsPoWWzD9dOULxyDDcGQqpuvqWA90NVfGmTdHMuS98Stw7v1JRxG+IByup7R25m3gm8rAoYgGeNpyN368yk2Ezk5sydF52qgGBO1JKqyAxaM2r8sBSIwm8aGX8s6PONqfm4mDEPtLtOoipg17S1KUdOaA+DKWLmIpVuRKIZjfFoZsgSYmSjakVITFhHNqoiJ0uBIpRh5DdXB+m9QlZXOjLe6pU5V9vsO4Vsv4D96NF4siOXwUSNp2PEWHQ4BWzAzbf7T6cqUHjcLZ6OAT9cH1pYsLvCScGgx8iVCN2w+4kNeN0SfocyzGoFVQhf7QpGqR9BE9Ot/mpgiUDPGoYOrtlM+o2Zw/liMbjkKeBb8nKRDP5ewXgTmBZmGosAumHNiinZ5WndSAfQW9jl0ZIlx+L/Zi0SDSPuVtRcN0x2tax4UsNLsyVFuBremc14UZm2rloldcUs68WadMnTfqg25qGeOk7k/VeMtGs1Xif0vGpR+1Nx/9SsVXhMfV+NJ7Sgg12j8dwhUFCDBqicvi3WpXro4rOkR0H7U6w3smCpf2l66R36Fque38I0d1YlxmMWSlbvKSMVRkmK/PPUh2L2OSMwWqzzLSNxRjHWlkMv61SfOmPgkYdWSmWmqRwanR1oRbsWwyS8T7OV9ycMa7IxL3ApWbaAl8tJc9XEDpNTZCuGO9C0mn+SmMa2GE83hhvZBkolBPlyMQiOJ7YUDfqY7WMD3LofyD7kbLAmD5zJhgjyfk4+kQkbs5OCoJxvXfIKsGA1QU5aCs9jKbK16XGctOQ1AkDwfcnLfmA0M0fDuLD0P9sAv8i0w9boFbExbMmLP3aUj7YekE9T7cNRvn3y79vkqoN81P2D8kPtyVG+2d+nqUjD5pSc5BWmYvl+s3+I9rxrYjLi/XuFHy/yxBrSDCrEqvdkZZA8VmOHB/q9kBbeeFqZxnzz0trIOSJusfsuMg1LVfvMI+0u9/pFnrltun5fSqakovUwEZsOnLc6oP/v5DwB06nOk8401Cnr/jyQ1GRtjwk8RiH5wMWDvOzPw3qM0uYoL9+LaWx9PNhh4GvU+IUHXqao9pmT2XfyyGgV/X1SYs3njgSs7PC5IwFTtD53JCD+sL+vrucg33U/EDruc0cC4mPJyBR5TNKW1/OL98WNPI7VuFkP+W93z0t1ZnfvEycB3nyv03k0e8Xv0/YbVeLd7WfKsd6dFxyzcnd++f2YPMVfd/aE4qk7e0Xx0Z09pEzMnb09nd9Pyd/Y/4O83S8obzQ9h+fNPtAa7ZvFm4H9JaPsPNiT4gPFcf8UjdeYQnT7P/r+qQQtVX+fhF+lqvHsYQB81YqEgPmCDTebPPvPPhCdzkvTmiQe6J6s6+hgr5omLg/21opIDvbWeA+5GjtZd0LAhiOPvwImaj2+O8o3vR/Rv7X49CBv8e9R3uz5Qd7vx0/hAyzv+MNR3t8/y7u/zXiL7x+Sj0o2xwPUc/T1E56fb/wTxOvizcR1xuuixbO0fuOZ45nrOfngcvLn91Q8XQ/iY1n9Kx5dfhUcv+CNYJ+zEQdELJffeLLhpYw/G76E+8d6+g/4reEPCfGBbPfXAX+uWqd4wMOb2v+E+E+2aqCEZS7Z+PcO+Qijo+R68Wz5xITxcvZqV2ZOtUaCxGO5gucvaD8Uy6dnPO873ycl+xhvFiMLyXjed75S5cnfK8XaINC/2vlWlUcS16b1Dxntf7FWXG7Y2flozXeT/7+nyll+mfLvxqzItLg16nkpGL/vegDNv1O+eNcbWD0Ak4Za/p2q+quxd1TMf1Wfa4Xx5q73kO4+zCdWK6iseH/tehXp12USSRvwURF/aJaPa5i/3vU80imO93srGr83JvK089iQdq0Zt1bD89u61zvR/mlW+t95DJm1bDAJbg96fpmzp1u9RMeexB41/8JjMbvZZx773o31l1mNuu2HcapvTLoe2s/dZlvwWN5db6nyZD93PaeQ8CE+1q31fGL+ug+jtEfC1W6saXsQEivIB46MwA0js44Bt+jwlHfAPbqZEK0wmB56GLVu5KhkGPV65LTiLtC2X6A8xigWZ7BjPzzxl/DDDZtIGbkXfhjfy657ZxZBfQae6TWMYiBmrFbb7QTWHYCbz0akRPb/NjGc/QIBZtNGpMTM3TLmIcfCrSnRQrjCfbM2furUOJJufoGs0vQomt203cBjzS/Y4FnsO/C8aufHixWR5k1GZ11L2D1mzG+RfalNsxZUAR/aSNBiw/MwrTo0crnz9OYXHse2e+yCKmCXt7ETxc4fzrhHY+e+2a7NwksBv0O3Bp6OQaxzpexeR+45lSgtjhP1iZZJTObtHFbXcuADc1M5Tw8tnsYhlX7xpr8oENY4zdc4FAvd9C/H0y9Idfs1LuqdgvZgM75xsTh/KHCBsvMqJB7EvRWmKhxoQ7TbvjJb19Qar2u69VsF2RoHYsOpKGLimYxboarCgd9C4pLENM3Teh0PJAYxGN3vgSfhRiNzNu9Og9ke7jUOhBLy4GfKCjEEOTPvpWEMS4H872lNNJlRoa0gqOKh/9fSRPnQwzzVXGZuNJo2USrzfBs/pvnMcSFQ4UAsYyt8f+rygS7OGVkOd8Q0aqkD76XRbpSjyRdXtKQjb01QBUIA3YJvSqMDlc73r7WUEymGXCobVT7cQgJKVpwote+5pgoH6hC5ScuBNWCqG1cYGPPLvXCn4ZyGDPNUXfc39ugu/tJKwMXjaraCE6ExTZnY1jKZcGhY++CBZHJo/mspIKOjJYTq4cQ5onxwsobiApV7bLZCUIXDM0iTU81HUj1jEjzwLUoabE8T42eQvrp6ONPOJMiZgzk0M1QrM4FYK3Dl4d039IntyLcYVQGpaY23ph4Yf639rXZ22Ifmn+rhFh2aYK+DcYGhVqMemHGGWo06cTTeDZ3oPDHNijtdD/xBXd2fFphUryuq27gubnbta2hcaLUVpJH7QCHf1Ztp8cTSqgzYkRm7jF63HdhBrViscbZ9K8hrPbjSXa1Gy6cvrUTKPPh6UzUnVcBrt1tH/YHXzEokWj2REEtOqh04kLqCg42zatOqCNuBhLhpPNo+5h2/VUiqgCMVmoY0jQdEbQVhZjhSyLvCga9dFY40+K5wINqX6t4zlb8gD0sBQ8umlq9nvlCMc34PPDg8g01IoMF1ToPfmUPBifb74QA1hYz6gdDax0J0JnNrGgP1wzAZQ6b7wfduOtOwT0Z1m416CadhAYKujwOzZlWMaSR+aGtuH4dYtGp1+TigiVXx+1GYsLTqHImlgEfU+OXGgZvNx9XwwOVpQ6MHzw7biZesCngp+lCfjrnRPTbIFJB+vdpeOnAV2li5cchBFAWkxmBnvWiUNXjA7LRWzaWASKINXB48p3Qn8ZIqIBm0sYvMwP6S0QPNw5SHZIPrDkbAx45GPtM+ZvFwx1n5wjwMxDEOgf0aOKmtQ3IzB03B5gEeqQd1imjhAYIGbl5n8J1CNgXCjK/N/KKAHHmWk9t3Epcv6LTvhp7AMHKnax7NOwV9rR2N8bibJ07e/Z6nZoOvqbhgGXc9D4PnlFpH1OQSLC+F2bgcPYPRiW64k8t5/Bco2h0+zH5iG8AwOtHDzNuRbOr65ANkjasXr/c7hWwK5JGNcDM0msDN2yG5WIcV9H7YCsTGZ1D8lXu6V7Ck9mQqfx9W/JJxu9ewech/QkM5RU4aNtX5qGET+/6ERvzkb9j466OGTdj+ExrS3zk5RdXvhhbjF48349oJ/95BsZ0L5LS0ErErPXmr0Cx9fmUb3ymkT1mPPXLe7RPzSA57BiLual1r+64pGfcKxrW9FegZ6s2HO9SG+1sil7pZM8iV5Xqn4PcEZS9bVubfw13X0s1DE39+S1ZwzHMBW7T57gOt+MZxkypgz0DQLPKVUnqnIOHZNePoVuGaq/aqAEuq1uY6Oddere9252+oEcNqyrYCdc4Y099Ox9AzuLPImY6dzPmU77cUgn0HyoTv7hnZSzwDoBZFUGZHn6MWO9OM7NZsH66j075zlUMVyFmsySIVLmisUeG7ydVS1UiJL0T8XsGosyfT9BabpHNVjr5T8FiIwrNije573i4xg/p5aGiMiyHskwcfLAX1wXkcbzEy3Y3P0ZKMbXUHsdy+OEyB+C2K8VFtMIweOpn1rswYawwyG9sCQ1aCRb3MwZutUmry3KfsoX5BODsbK8OGqqgt12jrNoJCfc7W5zkzmpndGD1Vgc5DLvaWuNV2F+WJQuJnyHYeuAEkW1/N5IRqNrajyQh7DgYbReYbcVc6YrGKE17MiLnFNAyNO1Co2dzYyYmL3ZKYVQFJfTxxwfFDshkxY/KSDKMZXL++26JlSYOXlPVCGczsfxH3viicqNEEYWeu/mSdO4OLVZIBIhvQg1+ItlsPmY5ohYCjoVcZjZ9694XBh4u2vUfFVp9opSSDy9GjDY8eBdOd0ZLzo6CzfvW4vCiQ6xA9t8iDBGNV2rlDIi+aZzyY+CBWNcaDM+FXg9WLAkXsu+fLspe4JPO9B0+hiXYDjchvKWukOJg+dXf3yXfgsqQ9LKiqAnn3MSkQMgL2c+ymye/NTOck2B4WlFWBgJBoMy/2IBvaGknjhz54SdGqKgb2ykWjSVwKdD/s9lh5aDbG0YgDe8c8RIyKJG4clr501Cqj3jBrFoO9pYZ+awz2lhr2EMSgGFnntoZodFZLga6s6HwCHA7EoNWP/dCuZC+pcBW31bYcmktsI2Vu5FB8bMljv6IajH7oilabt+TpJAx16/thUpda7c7+6rBzwz1K1qO95MlFHwqBtonnsmtKoDE+2XU/XBQbb+QlX7mhbEogaHjbOk/E0hrp1jCq6nrAGntsXXHDxhOHuvrNrTIDipVG8lRmL3QseHdYfV1jxqCmntQG1Qng1sCiZbQ/zcqKmUHKCD5axpy9lda1hI0CzfZnQntolXi7ypmSGFZRHDnTYwO6mOqi6Q3TmEHQCNoaM5g25blY8jjBzBoEJkYTTYO6yhPzrIqw8qx3o92oXGVVrUNo4P1iid7KE+qsgrB29C6r9eJwDGv1IZUJAywQ2iPNCF7X+2vJU+FQVeSu8ph6S4PvJAZh69YucsBPjZCrMLKudYD1MDFM7VvNuN8sx7nkEbi3RqiM/kaxLqWEDEZWZLjkE75P/V4RvfSiAzwqTzjJ1qxzYDzVrENl9iIbaLHkkbFS77sysdHASirLxPsoaxdNmTzhyhp2ufspW7/uOLwfKZ4ozBBmAz8KF9pmLWIpnSc4KfK55Mn+WIa/tMPzSkPP7tSlXMZNKzDhc1kHOi55wi+cYLHwxDYNswv7b9kIJTMne2wAZMasnlEVlcPEObUPuwEd1yMoQTkw/mp8VCIz3CuWX5hlJal/Xg4TM9Q/L0wAZwN38+QJGzYwcvKEAfWf88DEWVKMPQ/cb0n9h8wltUn9z8yZ8KT7Z1MYE2RpBLgHuNwGaha0V1ZccCDniGpv8wGYVnuYE/rzUf2BPaKPECmNr3PECbdRez9yRPsQ1f5kPi9R+4mXPAJkirVelPe38sFomPi8BCPI5vs0qL9xITxv5MXfSB39t2D0RR3vL6sOOEyEDorvJfb/g8azO6LB9QgeuD182A/BBqAWjF+C4mmHibs2wGDf4Pi9dIBoQn/Y8NvEOfug99c1oumdfFB58m9dnjM4vh6eGGPykXPjVqMeJ9pnlx84QfdOnvezynfE91yeGYvv5A/fSwrNuQYqqD3cmU1+/8IneDpfsv8jM6wHG5DJE6GDUV8mTNH7ANR0sIdK3sl4XdCBx5Hxf0vwRMb/zb7FgKVSNjCA4bSg4c5EbztY3cnhstOUNmIJQWPfjlB+0O7djkUzwXrZOUtriRS8d424nZlAo8FiiBJZ0R8335kTWTmvqZU4BU1yVIil8Ixao4HiEalaEJmRidDjCR745fMicN6s7sh8AJ/08uRpI+r7HoafK9SQ0HPMevgSj7bXwIa5JIrdI1x663O3ca6HolQ8pvtmag5jxknXTinGqi4yzyi26j8eUdx8ojfdT84KzgT/WrYU8fboPo6cgnmjXuLpwcbJxVxqQ+1M4K7pm9FnWKhgk8DIT9ylHDoJDOvwgk82RS5Sa+PhSYfbLdFJclhZYn3xAfP20UjJebJjNKAvIE4cDYgOiHPH4pP88IItupUP8vWTf98KxgP6rdEmlx/lbRItyncNHAJaqWhUVzxHYnN22yRRwl2GTypFZt2hTghPKo3TJwtSo0WcClTyZOUdlur5TeS2BJ+EipNug0+6Jbt/WbNLHifZGxD3/5ikS+u5mQxNee9kNYzceexe5vHvT31exKGjAn0BcdDtPdmkXlp/8rsR33/SRMZh/9zJU8vAzXoIV9jyZk94v9mk2MNk8annC1seovp4PMbmLL/+4dcff//pj3/568//+Mdvv3/7+vcvr///r1+/ffnbt6///OUvH//pt59+/PXL+rf/BQ==);lineShape=1;" vertex="1" parent="1">
          <mxGeometry x="673.8429656134799" y="336.11511403486213" width="443.0091431254342" height="298.3654161596104" as="geometry" />
        </mxCell>
      </root>
    </mxGraphModel>
  </diagram>
</mxfile>
